<svg width="25" height="24" viewBox="0 0 25 24" fill="none" xmlns="http://www.w3.org/2000/svg">
<path d="M11.8572 4H4.85718C4.32674 4 3.81804 4.21071 3.44296 4.58579C3.06789 4.96086 2.85718 5.46957 2.85718 6V20C2.85718 20.5304 3.06789 21.0391 3.44296 21.4142C3.81804 21.7893 4.32674 22 4.85718 22H18.8572C19.3876 22 19.8963 21.7893 20.2714 21.4142C20.6465 21.0391 20.8572 20.5304 20.8572 20V13" stroke="#624DE3" stroke-width="2" stroke-linecap="round" stroke-linejoin="round"/>
<path d="M19.3572 2.50001C19.755 2.10219 20.2946 1.87869 20.8572 1.87869C21.4198 1.87869 21.9594 2.10219 22.3572 2.50001C22.755 2.89784 22.9785 3.4374 22.9785 4.00001C22.9785 4.56262 22.755 5.10219 22.3572 5.50001L12.8572 15L8.85718 16L9.85718 12L19.3572 2.50001Z" stroke="#624DE3" stroke-width="2" stroke-linecap="round" stroke-linejoin="round"/>
</svg>
