<svg width="25" height="24" viewBox="0 0 25 24" fill="none" xmlns="http://www.w3.org/2000/svg">
<path d="M3.85718 6H5.85718H21.8572" stroke="#A30D11" stroke-width="2" stroke-linecap="round" stroke-linejoin="round"/>
<path d="M8.85718 6V4C8.85718 3.46957 9.06789 2.96086 9.44296 2.58579C9.81804 2.21071 10.3267 2 10.8572 2H14.8572C15.3876 2 15.8963 2.21071 16.2714 2.58579C16.6465 2.96086 16.8572 3.46957 16.8572 4V6M19.8572 6V20C19.8572 20.5304 19.6465 21.0391 19.2714 21.4142C18.8963 21.7893 18.3876 22 17.8572 22H7.85718C7.32674 22 6.81804 21.7893 6.44296 21.4142C6.06789 21.0391 5.85718 20.5304 5.85718 20V6H19.8572Z" stroke="#A30D11" stroke-width="2" stroke-linecap="round" stroke-linejoin="round"/>
<path d="M10.8572 11V17" stroke="#A30D11" stroke-width="2" stroke-linecap="round" stroke-linejoin="round"/>
<path d="M14.8572 11V17" stroke="#A30D11" stroke-width="2" stroke-linecap="round" stroke-linejoin="round"/>
</svg>
